<svg width="14" height="15" viewBox="0 0 14 15" fill="none" xmlns="http://www.w3.org/2000/svg">
<path d="M9.75 13.5H3.75C3.15326 13.5 2.58097 13.2629 2.15901 12.841C1.73705 12.419 1.5 11.8467 1.5 11.25V3.75C1.5 3.55109 1.42098 3.36032 1.28033 3.21967C1.13968 3.07902 0.948912 3 0.75 3C0.551088 3 0.360322 3.07902 0.21967 3.21967C0.0790176 3.36032 0 3.55109 0 3.75V11.25C0 12.2446 0.395088 13.1984 1.09835 13.9017C1.80161 14.6049 2.75544 15 3.75 15H9.75C9.94891 15 10.1397 14.921 10.2803 14.7803C10.421 14.6397 10.5 14.4489 10.5 14.25C10.5 14.0511 10.421 13.8603 10.2803 13.7197C10.1397 13.579 9.94891 13.5 9.75 13.5ZM13.5 5.205C13.4922 5.1361 13.4771 5.06822 13.455 5.0025V4.935C13.4189 4.85789 13.3708 4.787 13.3125 4.725V4.725L8.8125 0.225C8.7505 0.166662 8.67962 0.118561 8.6025 0.0824999H8.535L8.295 0H5.25C4.65326 0 4.08097 0.237053 3.65901 0.65901C3.23705 1.08097 3 1.65326 3 2.25V9.75C3 10.3467 3.23705 10.919 3.65901 11.341C4.08097 11.7629 4.65326 12 5.25 12H11.25C11.8467 12 12.419 11.7629 12.841 11.341C13.2629 10.919 13.5 10.3467 13.5 9.75V5.25C13.5 5.25 13.5 5.25 13.5 5.205ZM9 2.5575L10.9425 4.5H9.75C9.55109 4.5 9.36032 4.42098 9.21967 4.28033C9.07902 4.13968 9 3.94891 9 3.75V2.5575ZM12 9.75C12 9.94891 11.921 10.1397 11.7803 10.2803C11.6397 10.421 11.4489 10.5 11.25 10.5H5.25C5.05109 10.5 4.86032 10.421 4.71967 10.2803C4.57902 10.1397 4.5 9.94891 4.5 9.75V2.25C4.5 2.05109 4.57902 1.86032 4.71967 1.71967C4.86032 1.57902 5.05109 1.5 5.25 1.5H7.5V3.75C7.5 4.34674 7.73705 4.91903 8.15901 5.34099C8.58097 5.76295 9.15326 6 9.75 6H12V9.75Z" fill="#DCEBF9"/>
</svg>
