<svg width="22" height="22" viewBox="0 0 22 22" fill="none" xmlns="http://www.w3.org/2000/svg">
<path d="M18.4001 21.6998H13.2001C12.5001 21.6998 11.9001 21.0998 11.9001 20.3998C11.9001 19.6998 12.5001 19.0998 13.2001 19.0998H18.4001C18.8001 19.0998 19.1001 18.7998 19.1001 18.3998V14.0998C19.1001 13.3998 19.7001 12.7998 20.4001 12.7998C21.1001 12.7998 21.7001 13.3998 21.7001 14.0998V18.3998C21.7001 20.2998 20.3001 21.6998 18.4001 21.6998Z" fill="#191B1D"/>
<path d="M7.90005 21.6998H3.60005C1.80005 21.6998 0.300049 20.1998 0.300049 18.3998V14.0998C0.300049 13.3998 0.900049 12.7998 1.60005 12.7998C2.30005 12.7998 2.90005 13.3998 2.90005 14.0998V18.3998C2.90005 18.7998 3.20005 19.0998 3.60005 19.0998H7.90005C8.60005 19.0998 9.20005 19.6998 9.20005 20.3998C9.20005 21.0998 8.60005 21.6998 7.90005 21.6998Z" fill="#191B1D"/>
<path d="M15.7 12.6996H6.3C5.6 12.6996 5 12.0996 5 11.3996C5 10.6996 5.6 10.0996 6.3 10.0996H15.6C16.3 10.0996 16.9 10.6996 16.9 11.3996C16.9 12.0996 16.4 12.6996 15.7 12.6996Z" fill="#191B1D"/>
<path d="M20.4001 10.0998C19.7001 10.0998 19.1001 9.4998 19.1001 8.7998V3.5998C19.1001 3.1998 18.8001 2.8998 18.4001 2.8998H13.2001C12.5001 2.8998 11.9001 2.2998 11.9001 1.5998C11.9001 0.899805 12.5001 0.299805 13.2001 0.299805H18.4001C20.2001 0.299805 21.7001 1.7998 21.7001 3.5998V8.7998C21.7001 9.4998 21.2001 10.0998 20.4001 10.0998Z" fill="#191B1D"/>
<path d="M1.60005 10.0998C0.900049 10.0998 0.300049 9.4998 0.300049 8.7998V3.5998C0.300049 1.7998 1.80005 0.299805 3.60005 0.299805H7.90005C8.60005 0.299805 9.20005 0.899805 9.20005 1.5998C9.20005 2.2998 8.60005 2.8998 7.90005 2.8998H3.60005C3.20005 2.8998 2.90005 3.1998 2.90005 3.5998V8.7998C2.90005 9.4998 2.30005 10.0998 1.60005 10.0998Z" fill="#191B1D"/>
</svg>
