<svg width="22" height="26" viewBox="0 0 22 26" fill="none" xmlns="http://www.w3.org/2000/svg">
<path d="M17.1 8.59998C16.7 8.39998 16.2 8.29998 15.8 8.59998L11 11.1L6.20005 8.59998C5.80005 8.39998 5.30005 8.39998 4.90005 8.59998C4.50005 8.79998 4.30005 9.29998 4.30005 9.69998C4.30005 10.1 4.60005 10.5 5.00005 10.7L9.80005 13.2V19C9.80005 19.6 10.4 20.2 11 20.2C11.6 20.2 12.2 19.7 12.2 19V13.2L16.9 10.7C17.3 10.5 17.5 10.1 17.6 9.69998C17.7 9.19998 17.5 8.79998 17.1 8.59998Z" fill="#191B1D"/>
<path d="M20.6 5.7998L12.5 1.2998C11.6 0.799805 10.5 0.799805 9.6 1.2998L1.4 5.7998C0.5 6.2998 0 7.2998 0 8.2998V17.8998C0 18.8998 0.6 19.7998 1.5 20.2998L9.6 24.6998C10 24.8998 10.5 25.0998 11 25.0998C11.5 25.0998 12 24.9998 12.4 24.6998L20.5 20.2998C21.4 19.7998 22 18.8998 22 17.8998V8.2998C22 7.2998 21.5 6.2998 20.6 5.7998ZM19.5 17.8998C19.5 17.9998 19.4 18.0998 19.3 18.1998L11.2 22.5998C11.1 22.6998 10.9 22.6998 10.8 22.5998L2.7 18.1998L2.6 18.0998C2.6 17.9998 2.6 17.9998 2.6 17.8998V8.2998C2.5 8.0998 2.6 7.9998 2.7 7.9998L10.8 3.4998C10.9 3.4998 10.9 3.4998 11 3.4998C11.1 3.4998 11.1 3.4998 11.2 3.4998L19.3 7.9998C19.4 8.0998 19.5 8.1998 19.5 8.2998V17.8998Z" fill="#191B1D"/>
</svg>
