<svg width="6" height="10" viewBox="0 0 6 10" fill="none" xmlns="http://www.w3.org/2000/svg">
<path d="M3.5923 4.9996L0.642304 7.9496C0.487095 8.10573 0.399976 8.31694 0.399976 8.53709C0.399976 8.75725 0.487094 8.96846 0.642303 9.12459C0.719772 9.2027 0.81194 9.2647 0.913489 9.307C1.01504 9.34931 1.12396 9.37109 1.23397 9.37109C1.34398 9.37109 1.4529 9.34931 1.55445 9.307C1.656 9.2647 1.74817 9.2027 1.82564 9.12459L5.35897 5.59126C5.43708 5.51379 5.49907 5.42163 5.54138 5.32008C5.58369 5.21853 5.60547 5.10961 5.60547 4.9996C5.60547 4.88959 5.58369 4.78066 5.54138 4.67912C5.49907 4.57757 5.43708 4.4854 5.35897 4.40793L1.82564 0.832929C1.74777 0.755695 1.65542 0.694591 1.55389 0.653121C1.45236 0.61165 1.34364 0.590628 1.23397 0.591262C1.1243 0.590628 1.01558 0.61165 0.914049 0.653121C0.812517 0.694591 0.720171 0.755695 0.642304 0.832929C0.487095 0.989065 0.399977 1.20027 0.399977 1.42043C0.399977 1.64058 0.487095 1.85179 0.642304 2.00793L3.5923 4.9996Z" fill="#DCEBF9"/>
</svg>
